<svg id="visual" viewBox="0 0 900 600" width="900" height="600" xmlns="http://www.w3.org/2000/svg" xmlns:xlink="http://www.w3.org/1999/xlink" version="1.1"><rect x="0" y="0" width="900" height="600" fill="#001220"></rect><path d="M0 216L21.5 218.5C43 221 86 226 128.8 229.3C171.7 232.7 214.3 234.3 257.2 234C300 233.7 343 231.3 385.8 232C428.7 232.7 471.3 236.3 514.2 236.2C557 236 600 232 642.8 229.8C685.7 227.7 728.3 227.3 771.2 226.8C814 226.3 857 225.7 878.5 225.3L900 225L900 601L878.5 601C857 601 814 601 771.2 601C728.3 601 685.7 601 642.8 601C600 601 557 601 514.2 601C471.3 601 428.7 601 385.8 601C343 601 300 601 257.2 601C214.3 601 171.7 601 128.8 601C86 601 43 601 21.5 601L0 601Z" fill="#69faa2"></path><path d="M0 259L21.5 261.7C43 264.3 86 269.7 128.8 272.2C171.7 274.7 214.3 274.3 257.2 275.7C300 277 343 280 385.8 277.5C428.7 275 471.3 267 514.2 263.3C557 259.7 600 260.3 642.8 262.2C685.7 264 728.3 267 771.2 268.7C814 270.3 857 270.7 878.5 270.8L900 271L900 601L878.5 601C857 601 814 601 771.2 601C728.3 601 685.7 601 642.8 601C600 601 557 601 514.2 601C471.3 601 428.7 601 385.8 601C343 601 300 601 257.2 601C214.3 601 171.7 601 128.8 601C86 601 43 601 21.5 601L0 601Z" fill="#64f393"></path><path d="M0 324L21.5 321.7C43 319.3 86 314.7 128.8 315.5C171.7 316.3 214.3 322.7 257.2 322.2C300 321.7 343 314.3 385.8 312.8C428.7 311.3 471.3 315.7 514.2 315.5C557 315.3 600 310.7 642.8 309.8C685.7 309 728.3 312 771.2 313.5C814 315 857 315 878.5 315L900 315L900 601L878.5 601C857 601 814 601 771.2 601C728.3 601 685.7 601 642.8 601C600 601 557 601 514.2 601C471.3 601 428.7 601 385.8 601C343 601 300 601 257.2 601C214.3 601 171.7 601 128.8 601C86 601 43 601 21.5 601L0 601Z" fill="#5fec83"></path><path d="M0 362L21.5 364.3C43 366.7 86 371.3 128.8 373.3C171.7 375.3 214.3 374.7 257.2 372.3C300 370 343 366 385.8 363C428.7 360 471.3 358 514.2 359C557 360 600 364 642.8 366.5C685.7 369 728.3 370 771.2 371.3C814 372.7 857 374.3 878.5 375.2L900 376L900 601L878.5 601C857 601 814 601 771.2 601C728.3 601 685.7 601 642.8 601C600 601 557 601 514.2 601C471.3 601 428.7 601 385.8 601C343 601 300 601 257.2 601C214.3 601 171.7 601 128.8 601C86 601 43 601 21.5 601L0 601Z" fill="#5be572"></path><path d="M0 420L21.5 419C43 418 86 416 128.8 412.8C171.7 409.7 214.3 405.3 257.2 405C300 404.7 343 408.3 385.8 410.2C428.7 412 471.3 412 514.2 414C557 416 600 420 642.8 420C685.7 420 728.3 416 771.2 412.2C814 408.3 857 404.7 878.5 402.8L900 401L900 601L878.5 601C857 601 814 601 771.2 601C728.3 601 685.7 601 642.8 601C600 601 557 601 514.2 601C471.3 601 428.7 601 385.8 601C343 601 300 601 257.2 601C214.3 601 171.7 601 128.8 601C86 601 43 601 21.5 601L0 601Z" fill="#59dd61"></path><path d="M0 460L21.5 460.7C43 461.3 86 462.7 128.8 460.7C171.7 458.7 214.3 453.3 257.2 450.7C300 448 343 448 385.8 448.3C428.7 448.7 471.3 449.3 514.2 449.2C557 449 600 448 642.8 448.7C685.7 449.3 728.3 451.7 771.2 452.5C814 453.3 857 452.7 878.5 452.3L900 452L900 601L878.5 601C857 601 814 601 771.2 601C728.3 601 685.7 601 642.8 601C600 601 557 601 514.2 601C471.3 601 428.7 601 385.8 601C343 601 300 601 257.2 601C214.3 601 171.7 601 128.8 601C86 601 43 601 21.5 601L0 601Z" fill="#57d650"></path><path d="M0 510L21.5 509.7C43 509.3 86 508.7 128.8 509.7C171.7 510.7 214.3 513.3 257.2 511.8C300 510.3 343 504.7 385.8 504.8C428.7 505 471.3 511 514.2 511.2C557 511.3 600 505.7 642.8 501.5C685.7 497.3 728.3 494.7 771.2 497.7C814 500.7 857 509.3 878.5 513.7L900 518L900 601L878.5 601C857 601 814 601 771.2 601C728.3 601 685.7 601 642.8 601C600 601 557 601 514.2 601C471.3 601 428.7 601 385.8 601C343 601 300 601 257.2 601C214.3 601 171.7 601 128.8 601C86 601 43 601 21.5 601L0 601Z" fill="#56cf3c"></path><path d="M0 556L21.5 557.3C43 558.7 86 561.3 128.8 562.7C171.7 564 214.3 564 257.2 564.3C300 564.7 343 565.3 385.8 565.7C428.7 566 471.3 566 514.2 564.2C557 562.3 600 558.7 642.8 555.2C685.7 551.7 728.3 548.3 771.2 546.7C814 545 857 545 878.5 545L900 545L900 601L878.5 601C857 601 814 601 771.2 601C728.3 601 685.7 601 642.8 601C600 601 557 601 514.2 601C471.3 601 428.7 601 385.8 601C343 601 300 601 257.2 601C214.3 601 171.7 601 128.8 601C86 601 43 601 21.5 601L0 601Z" fill="#55c724"></path></svg>